<svg width="108" height="108" viewBox="0 0 108 108" fill="none" xmlns="http://www.w3.org/2000/svg">
<circle cx="54" cy="54" r="54" fill="#272727"/>
<path d="M34.6715 27.8184L31.7092 30.6734L36.1168 34.9255L39.0749 32.0705L34.6694 27.8184H34.6715ZM73.3306 27.8184L68.9229 32.0705L71.8831 34.9255L76.2886 30.6754L73.3306 27.8184ZM54 29.0855C53.3057 29.0936 52.603 29.1322 51.8961 29.2154C51.875 29.2154 51.854 29.2114 51.8329 29.2154C43.2995 30.1597 36.5082 36.814 35.3279 45.0136C34.3853 51.613 37.2046 57.5972 41.9026 61.4513C43.8243 63.0343 45.1241 65.2065 45.5844 67.6041V79.7878H50.3813C51.1134 81 52.4494 81.8184 54 81.8184C55.5505 81.8184 56.8865 81 57.6187 79.7878H62.4155V71.6653H62.6133V69.2529C62.6133 66.2761 64.2165 63.2748 66.8211 60.9417C70.3051 57.5749 72.935 52.7928 72.935 47.3C72.935 37.2688 64.3806 28.9921 54 29.0855ZM54 33.1467C62.1315 33.037 68.7272 39.4619 68.7272 47.3C68.7272 51.5521 66.6865 55.2966 63.8609 58.0216L63.9282 58.0866C61.1203 60.5857 59.3047 63.9527 58.7947 67.6061H49.5923C49.1294 64.1257 47.5831 60.7569 44.6608 58.3405C40.9432 55.2945 38.7278 50.7054 39.4683 45.5232C40.3877 39.1268 45.7653 33.9833 52.3547 33.2787C52.8987 33.2055 53.4466 33.1621 53.9957 33.1487L54 33.1467ZM24.5454 47.3V51.3612H30.8571V47.3H24.5454ZM77.1428 47.3V51.3612H83.4545V47.3H77.1428ZM36.1168 63.7358L31.7113 67.9858L34.6715 70.8429L39.0728 66.5908L36.1168 63.7358ZM71.8831 63.7358L68.925 66.5908L73.3284 70.8429L76.2886 67.9858L71.8831 63.7358ZM49.7922 71.6673H58.2077V75.7286H49.7922V71.6673Z" fill="white"/>
</svg>
