<svg width="36" height="28" viewBox="0 0 36 28" fill="none" xmlns="http://www.w3.org/2000/svg">
<path d="M0 2.21053C0 1.62426 0.237053 1.062 0.659009 0.647448C1.08097 0.232894 1.65326 0 2.25 0H33.75C34.3467 0 34.919 0.232894 35.341 0.647448C35.7629 1.062 36 1.62426 36 2.21053C36 2.79679 35.7629 3.35905 35.341 3.7736C34.919 4.18816 34.3467 4.42105 33.75 4.42105H2.25C1.65326 4.42105 1.08097 4.18816 0.659009 3.7736C0.237053 3.35905 0 2.79679 0 2.21053ZM0 14C0 13.4137 0.237053 12.8515 0.659009 12.4369C1.08097 12.0224 1.65326 11.7895 2.25 11.7895H33.75C34.3467 11.7895 34.919 12.0224 35.341 12.4369C35.7629 12.8515 36 13.4137 36 14C36 14.5863 35.7629 15.1485 35.341 15.5631C34.919 15.9776 34.3467 16.2105 33.75 16.2105H2.25C1.65326 16.2105 1.08097 15.9776 0.659009 15.5631C0.237053 15.1485 0 14.5863 0 14ZM0 25.7895C0 25.2032 0.237053 24.641 0.659009 24.2264C1.08097 23.8118 1.65326 23.5789 2.25 23.5789H33.75C34.3467 23.5789 34.919 23.8118 35.341 24.2264C35.7629 24.641 36 25.2032 36 25.7895C36 26.3757 35.7629 26.938 35.341 27.3526C34.919 27.7671 34.3467 28 33.75 28H2.25C1.65326 28 1.08097 27.7671 0.659009 27.3526C0.237053 26.938 0 26.3757 0 25.7895Z" fill="white"/>
</svg>
