<svg width="108" height="108" viewBox="0 0 108 108" fill="none" xmlns="http://www.w3.org/2000/svg">
<circle cx="54" cy="54" r="54" fill="#272727"/>
<path d="M53.9998 81.818C50.3467 81.818 46.7293 81.0985 43.3543 79.7005C39.9792 78.3025 36.9126 76.2534 34.3294 73.6702C29.1125 68.4533 26.1816 61.3777 26.1816 53.9998C26.1816 46.622 29.1125 39.5463 34.3294 34.3294C39.5463 29.1125 46.622 26.1816 53.9998 26.1816C69.2998 26.1816 81.818 37.3089 81.818 51.218C81.818 55.6447 80.0595 59.8901 76.9294 63.0203C73.7992 66.1504 69.5538 67.9089 65.1271 67.9089H60.1198C59.2853 67.9089 58.7289 68.4653 58.7289 69.2998C58.7289 69.578 59.0071 69.8562 59.0071 70.1344C60.1198 71.5253 60.6762 73.1944 60.6762 74.8635C60.9544 78.758 57.8944 81.818 53.9998 81.818ZM53.9998 31.7453C48.0975 31.7453 42.437 34.0899 38.2635 38.2635C34.0899 42.437 31.7453 48.0975 31.7453 53.9998C31.7453 59.9021 34.0899 65.5626 38.2635 69.7362C42.437 73.9097 48.0975 76.2544 53.9998 76.2544C54.8344 76.2544 55.3907 75.698 55.3907 74.8635C55.3907 74.3071 55.1125 74.0289 55.1125 73.7507C53.9998 72.3598 53.4435 70.9689 53.4435 69.2998C53.4435 65.4053 56.5035 62.3453 60.398 62.3453H65.1271C68.0782 62.3453 70.9085 61.1729 72.9953 59.0862C75.082 56.9994 76.2544 54.1691 76.2544 51.218C76.2544 40.3689 66.2398 31.7453 53.9998 31.7453ZM38.6998 48.4362C40.9253 48.4362 42.8725 50.3835 42.8725 52.6089C42.8725 54.8344 40.9253 56.7816 38.6998 56.7816C36.4744 56.7816 34.5271 54.8344 34.5271 52.6089C34.5271 50.3835 36.4744 48.4362 38.6998 48.4362ZM47.0453 37.3089C49.2707 37.3089 51.218 39.2562 51.218 41.4816C51.218 43.7071 49.2707 45.6544 47.0453 45.6544C44.8198 45.6544 42.8725 43.7071 42.8725 41.4816C42.8725 39.2562 44.8198 37.3089 47.0453 37.3089ZM60.9544 37.3089C63.1798 37.3089 65.1271 39.2562 65.1271 41.4816C65.1271 43.7071 63.1798 45.6544 60.9544 45.6544C58.7289 45.6544 56.7816 43.7071 56.7816 41.4816C56.7816 39.2562 58.7289 37.3089 60.9544 37.3089ZM69.2998 48.4362C71.5253 48.4362 73.4725 50.3835 73.4725 52.6089C73.4725 54.8344 71.5253 56.7816 69.2998 56.7816C67.0744 56.7816 65.1271 54.8344 65.1271 52.6089C65.1271 50.3835 67.0744 48.4362 69.2998 48.4362Z" fill="white"/>
</svg>
