<svg width="31" height="32" viewBox="0 0 31 32" fill="none" xmlns="http://www.w3.org/2000/svg">
<path fill-rule="evenodd" clip-rule="evenodd" d="M25.0153 22.0983C26.7166 15.7493 22.6882 9.19158 16.0702 7.41853C8.59664 5.41407 -2.0107 10.6191 0.349026 17.2958C1.13125 19.504 2.63704 20.0206 5.47751 20.0613L5.65514 20.0646C7.15604 20.0825 7.57812 20.1803 7.70523 20.3856C7.91219 20.7246 7.91545 21.264 7.68241 22.7486C7.5716 23.4493 7.53575 23.6938 7.49337 24.0767C7.23426 26.4088 7.62864 28.2274 9.15561 29.8734C13.9272 35.0116 23.0939 29.2655 25.0153 22.0983ZM3.42253 16.2072C2.23452 12.8501 9.8368 9.11988 15.226 10.5637C20.1427 11.8821 23.0907 16.6814 21.8668 21.2526C20.5012 26.3501 14.0739 30.3786 11.5447 27.6538C10.7624 26.8129 10.5685 25.9133 10.7331 24.4353C10.7673 24.1191 10.7999 23.9007 10.9026 23.2521C11.2595 20.9755 11.2546 19.9358 10.4821 18.6794C9.51413 17.1035 8.3636 16.8379 5.69588 16.8036L5.52314 16.8004C3.95216 16.7792 3.58061 16.6505 3.42253 16.2072Z" fill="white"/>
<path d="M8.36029 15.6516C7.82003 15.6516 7.3019 15.4369 6.91988 15.0549C6.53786 14.6729 6.32324 14.1548 6.32324 13.6145C6.32324 13.0743 6.53786 12.5561 6.91988 12.1741C7.3019 11.7921 7.82003 11.5775 8.36029 11.5775C8.90055 11.5775 9.41869 11.7921 9.80071 12.1741C10.1827 12.5561 10.3973 13.0743 10.3973 13.6145C10.3973 14.1548 10.1827 14.6729 9.80071 15.0549C9.41869 15.4369 8.90055 15.6516 8.36029 15.6516ZM14.4715 15.6516C13.9312 15.6516 13.4131 15.4369 13.031 15.0549C12.649 14.6729 12.4344 14.1548 12.4344 13.6145C12.4344 13.0743 12.649 12.5561 13.031 12.1741C13.4131 11.7921 13.9312 11.5775 14.4715 11.5775C15.0117 11.5775 15.5298 11.7921 15.9119 12.1741C16.2939 12.5561 16.5085 13.0743 16.5085 13.6145C16.5085 14.1548 16.2939 14.6729 15.9119 15.0549C15.5298 15.4369 15.0117 15.6516 14.4715 15.6516ZM18.5456 20.5405C18.0053 20.5405 17.4872 20.3259 17.1051 19.9439C16.7231 19.5618 16.5085 19.0437 16.5085 18.5034C16.5085 17.9632 16.7231 17.445 17.1051 17.063C17.4872 16.681 18.0053 16.4664 18.5456 16.4664C19.0858 16.4664 19.6039 16.681 19.986 17.063C20.368 17.445 20.5826 17.9632 20.5826 18.5034C20.5826 19.0437 20.368 19.5618 19.986 19.9439C19.6039 20.3259 19.0858 20.5405 18.5456 20.5405ZM16.1011 26.2442C15.5608 26.2442 15.0427 26.0296 14.6607 25.6476C14.2787 25.2656 14.064 24.7474 14.064 24.2072C14.064 23.6669 14.2787 23.1488 14.6607 22.7668C15.0427 22.3847 15.5608 22.1701 16.1011 22.1701C16.6414 22.1701 17.1595 22.3847 17.5415 22.7668C17.9235 23.1488 18.1381 23.6669 18.1381 24.2072C18.1381 24.7474 17.9235 25.2656 17.5415 25.6476C17.1595 26.0296 16.6414 26.2442 16.1011 26.2442ZM22.0004 5.23001C22.1936 5.12648 22.4058 5.06301 22.6241 5.04338C22.8424 5.02375 23.0625 5.04838 23.2711 5.11578C23.4797 5.18318 23.6725 5.29197 23.8381 5.43565C24.0036 5.57932 24.1385 5.75492 24.2346 5.95194L30.9048 19.6409C31.0161 19.887 31.0296 20.1662 30.9425 20.4219C30.8553 20.6775 30.6741 20.8904 30.4356 21.0172C30.1972 21.144 29.9194 21.1752 29.6587 21.1045C29.398 21.0339 29.174 20.8665 29.0323 20.6366L21.3599 7.48543C21.2497 7.29624 21.1787 7.08673 21.1514 6.86946C21.124 6.65219 21.1408 6.43163 21.2008 6.22101C21.2607 6.01039 21.3626 5.81405 21.5003 5.64376C21.638 5.47347 21.8086 5.33274 22.002 5.23001H22.0004Z" fill="white"/>
<path fill-rule="evenodd" clip-rule="evenodd" d="M19.0128 5.03283C19.8064 6.52395 21.1411 6.94114 22.4318 6.25506C23.7208 5.57061 24.1234 4.22941 23.3297 2.73829C22.4237 1.03043 20.4811 -0.517731 19.1937 0.165089C17.9063 0.849538 18.1051 3.32496 19.0144 5.03283H19.0128ZM20.4518 4.2669C20.1632 3.68746 19.9863 3.05888 19.9303 2.41399C19.9061 2.1444 19.9159 1.87282 19.9596 1.60569L19.989 1.62036C20.0705 1.65947 20.323 1.7768 20.6457 2.03429C21.1379 2.42703 21.6268 3.00555 21.8908 3.50259C22.2639 4.20334 22.158 4.55534 21.6659 4.81772C21.177 5.07846 20.825 4.96764 20.4518 4.26853V4.2669Z" fill="white"/>
</svg>
