<svg width="34" height="34" viewBox="0 0 34 34" fill="none" xmlns="http://www.w3.org/2000/svg">
<path fill-rule="evenodd" clip-rule="evenodd" d="M18.0025 22.2517C17.7368 22.5173 17.3765 22.6665 17.0009 22.6665C16.6252 22.6665 16.265 22.5173 15.9993 22.2517L7.98523 14.2377C7.84992 14.107 7.742 13.9507 7.66775 13.7778C7.5935 13.605 7.55442 13.4191 7.55279 13.231C7.55115 13.0429 7.587 12.8563 7.65823 12.6822C7.72946 12.5081 7.83465 12.3499 7.96767 12.2169C8.10068 12.0839 8.25885 11.9787 8.43296 11.9075C8.60706 11.8363 8.79361 11.8004 8.98171 11.8021C9.16982 11.8037 9.35571 11.8428 9.52855 11.917C9.70139 11.9913 9.85771 12.0992 9.98839 12.2345L17.0009 19.247L24.0134 12.2345C24.2806 11.9764 24.6384 11.8336 25.0099 11.8369C25.3813 11.8401 25.7366 11.9891 25.9993 12.2517C26.262 12.5144 26.411 12.8697 26.4142 13.2412C26.4174 13.6126 26.2746 13.9705 26.0166 14.2377L18.0025 22.2517Z" fill="white"/>
</svg>
