<svg width="54" height="54" viewBox="0 0 54 54" fill="none" xmlns="http://www.w3.org/2000/svg">
<circle cx="27" cy="27" r="26.5" stroke="#949494" stroke-opacity="0.23"/>
<path d="M27 12C25.0302 12 23.0796 12.3844 21.2597 13.1311C19.4399 13.8779 17.7863 14.9725 16.3934 16.3524C13.5804 19.1392 12 22.9189 12 26.86C12 33.4281 16.305 39.0006 22.26 40.977C23.01 41.0959 23.25 40.6352 23.25 40.234V37.7226C19.095 38.6142 18.21 35.7314 18.21 35.7314C17.52 34.0076 16.545 33.547 16.545 33.547C15.18 32.6257 16.65 32.6554 16.65 32.6554C18.15 32.7594 18.945 34.186 18.945 34.186C20.25 36.4447 22.455 35.776 23.31 35.4193C23.445 34.4534 23.835 33.7996 24.255 33.4281C20.925 33.0566 17.43 31.7786 17.43 26.117C17.43 24.4675 18 23.145 18.975 22.0899C18.825 21.7184 18.3 20.173 19.125 18.1669C19.125 18.1669 20.385 17.7657 23.25 19.6826C24.435 19.3557 25.725 19.1922 27 19.1922C28.275 19.1922 29.565 19.3557 30.75 19.6826C33.615 17.7657 34.875 18.1669 34.875 18.1669C35.7 20.173 35.175 21.7184 35.025 22.0899C36 23.145 36.57 24.4675 36.57 26.117C36.57 31.7935 33.06 33.0417 29.715 33.4132C30.255 33.8739 30.75 34.7804 30.75 36.1623V40.234C30.75 40.6352 30.99 41.1107 31.755 40.977C37.71 38.9857 42 33.4281 42 26.86C42 24.9085 41.612 22.9762 40.8582 21.1733C40.1044 19.3704 38.9995 17.7323 37.6066 16.3524C36.2137 14.9725 34.5601 13.8779 32.7403 13.1311C30.9204 12.3844 28.9698 12 27 12Z" fill="white"/>
</svg>
