<svg width="108" height="108" viewBox="0 0 108 108" fill="none" xmlns="http://www.w3.org/2000/svg">
<circle cx="54" cy="54" r="54" fill="#272727"/>
<path d="M78.2723 46.316C81.5023 43.0862 80.0294 39.3137 78.2723 37.4792L70.5203 29.7276C67.2645 26.4978 63.5177 27.9706 61.683 29.7276L57.2902 34.146H50.5976C45.688 34.146 42.8456 36.7299 41.3986 39.7013L29.9256 51.1737V61.5092L28.091 63.3179C24.861 66.5735 26.3338 70.3201 28.091 72.1547L35.843 79.9063C37.2383 81.3016 38.7371 81.8184 40.1583 81.8184C41.9929 81.8184 43.6725 80.914 44.6803 79.9063L51.6571 72.904H60.9337C65.3265 72.904 67.5487 70.1651 68.3497 67.4779C71.2697 66.7027 72.8717 64.4806 73.5177 62.3102C77.523 61.2766 79.0217 57.4783 79.0217 54.8169V47.0653H77.4971L78.2723 46.316ZM73.8537 54.8169C73.8537 55.9797 73.3627 57.4008 71.2697 57.4008H68.6857V59.9847C68.6857 61.1474 68.1947 62.5685 66.1017 62.5685H63.5177V65.1524C63.5177 66.3152 63.0267 67.7363 60.9337 67.7363H49.5382L41.0627 76.2114C40.2616 76.9607 39.7965 76.5214 39.5123 76.2372L31.7861 68.5373C31.0367 67.7363 31.476 67.2712 31.7603 66.987L35.0936 63.6279V53.2925L40.2616 48.1247V52.2331C40.2616 55.3596 42.3288 59.9847 48.0136 59.9847C53.6984 59.9847 55.7656 55.3596 55.7656 52.2331H73.8537V54.8169ZM74.603 42.6469L70.2102 47.0653H50.5976V52.2331C50.5976 53.3958 50.1067 54.8169 48.0136 54.8169C45.9206 54.8169 45.4296 53.3958 45.4296 52.2331V44.4815C45.4296 43.2929 45.8689 39.3137 50.5976 39.3137H59.4091L65.3006 33.4225C66.1017 32.6732 66.5668 33.1125 66.851 33.3967L74.5772 41.0966C75.3266 41.8976 74.8873 42.3627 74.603 42.6469Z" fill="white"/>
</svg>
