<svg width="54" height="54" viewBox="0 0 54 54" fill="none" xmlns="http://www.w3.org/2000/svg">
<circle cx="27" cy="27" r="26.5" stroke="#949494" stroke-opacity="0.23"/>
<path d="M33.258 29.6C33.382 28.577 33.475 27.554 33.475 26.5C33.475 25.446 33.382 24.423 33.258 23.4H38.497C38.745 24.392 38.9 25.4305 38.9 26.5C38.9 27.5695 38.745 28.608 38.497 29.6M30.5145 38.218C31.4445 36.4975 32.1575 34.6375 32.6535 32.7H37.226C35.7243 35.2858 33.3419 37.2446 30.5145 38.218ZM30.127 29.6H22.873C22.718 28.577 22.625 27.554 22.625 26.5C22.625 25.446 22.718 24.4075 22.873 23.4H30.127C30.2665 24.4075 30.375 25.446 30.375 26.5C30.375 27.554 30.2665 28.577 30.127 29.6ZM26.5 38.838C25.2135 36.978 24.175 34.9165 23.5395 32.7H29.4605C28.825 34.9165 27.7865 36.978 26.5 38.838ZM20.3 20.3H15.774C17.2602 17.7072 19.6409 15.7453 22.47 14.782C21.54 16.5025 20.8425 18.3625 20.3 20.3ZM15.774 32.7H20.3C20.8425 34.6375 21.54 36.4975 22.47 38.218C19.6469 37.2441 17.2695 35.285 15.774 32.7ZM14.503 29.6C14.255 28.608 14.1 27.5695 14.1 26.5C14.1 25.4305 14.255 24.392 14.503 23.4H19.742C19.618 24.423 19.525 25.446 19.525 26.5C19.525 27.554 19.618 28.577 19.742 29.6M26.5 14.1465C27.7865 16.0065 28.825 18.0835 29.4605 20.3H23.5395C24.175 18.0835 25.2135 16.0065 26.5 14.1465ZM37.226 20.3H32.6535C32.1684 18.3803 31.45 16.5271 30.5145 14.782C33.3665 15.7585 35.738 17.727 37.226 20.3ZM26.5 11C17.9285 11 11 17.975 11 26.5C11 30.6109 12.633 34.5533 15.5398 37.4602C16.9792 38.8995 18.6879 40.0412 20.5684 40.8201C22.449 41.5991 24.4645 42 26.5 42C30.6109 42 34.5533 40.367 37.4602 37.4602C40.367 34.5533 42 30.6109 42 26.5C42 24.4645 41.5991 22.449 40.8201 20.5684C40.0412 18.6879 38.8995 16.9792 37.4602 15.5398C36.0208 14.1005 34.3121 12.9588 32.4316 12.1799C30.551 11.4009 28.5355 11 26.5 11Z" fill="white"/>
</svg>
