<svg width="23" height="23" viewBox="0 0 23 23" fill="none" xmlns="http://www.w3.org/2000/svg">
<path d="M22.7499 11.2727C22.7499 17.3556 17.7178 22.2953 11.4999 22.2953C5.28204 22.2953 0.25 17.3556 0.25 11.2727C0.25 5.1897 5.28204 0.25 11.4999 0.25C17.7178 0.25 22.7499 5.1897 22.7499 11.2727Z" fill="black" stroke="white" stroke-width="0.5"/>
<path d="M12.5074 11.31L15.931 7.95663C16.0464 7.82463 16.1067 7.65484 16.0998 7.48119C16.093 7.30754 16.0195 7.14281 15.894 7.01993C15.7686 6.89704 15.6004 6.82506 15.4231 6.81835C15.2458 6.81164 15.0725 6.87071 14.9377 6.98375L11.5141 10.3026L8.06944 6.92855C7.93468 6.81551 7.76133 6.75644 7.58404 6.76315C7.40675 6.76986 7.23857 6.84184 7.11312 6.96473C6.98766 7.08761 6.91417 7.25234 6.90732 7.42599C6.90047 7.59964 6.96077 7.76943 7.07618 7.90143L10.5138 11.31L7.14662 14.5667C7.07288 14.6286 7.01299 14.7047 6.97071 14.7903C6.92842 14.8759 6.90466 14.9691 6.90092 15.0642C6.89717 15.1592 6.91352 15.2539 6.94893 15.3425C6.98435 15.431 7.03807 15.5114 7.10672 15.5787C7.17537 15.6459 7.25747 15.6985 7.34786 15.7332C7.43826 15.7679 7.535 15.7839 7.63202 15.7803C7.72903 15.7766 7.82422 15.7533 7.91162 15.7119C7.99902 15.6705 8.07673 15.6118 8.13988 15.5396L11.5 12.2484L14.8391 15.5189C14.9738 15.6319 15.1472 15.691 15.3245 15.6843C15.5018 15.6776 15.6699 15.6056 15.7954 15.4827C15.9209 15.3598 15.9944 15.1951 16.0012 15.0214C16.008 14.8478 15.9477 14.678 15.8323 14.546L12.5074 11.31Z" fill="white"/>
</svg>
