<svg width="56" height="56" viewBox="0 0 56 56" fill="none" xmlns="http://www.w3.org/2000/svg">
<circle cx="28" cy="28" r="26.5" stroke="#E00000" stroke-width="3"/>
<path d="M22.0571 17.5453C21.9437 16.7328 21.9997 15.9044 22.2212 15.1163C22.4427 14.3283 22.8246 13.5991 23.3409 12.9782C23.8572 12.3573 24.4959 11.8593 25.2135 11.518C25.9311 11.1767 26.7109 11 27.5 11C28.2891 11 29.0689 11.1767 29.7865 11.518C30.5041 11.8593 31.1428 12.3573 31.6591 12.9782C32.1754 13.5991 32.5573 14.3283 32.7788 15.1163C33.0003 15.9044 33.0563 16.7328 32.9429 17.5453L31.117 30.8386C30.9906 31.743 30.5555 32.5697 29.8913 33.1677C29.2271 33.7656 28.3782 34.0946 27.5 34.0946C26.6218 34.0946 25.7729 33.7656 25.1087 33.1677C24.4445 32.5697 24.0094 31.743 23.883 30.8386L22.0571 17.5453ZM30.67 40.7014C30.67 41.5763 30.336 42.4153 29.7415 43.0339C29.1471 43.6525 28.3407 44 27.5 44C26.6593 44 25.8529 43.6525 25.2585 43.0339C24.664 42.4153 24.33 41.5763 24.33 40.7014C24.33 39.8266 24.664 38.9876 25.2585 38.369C25.8529 37.7503 26.6593 37.4028 27.5 37.4028C28.3407 37.4028 29.1471 37.7503 29.7415 38.369C30.336 38.9876 30.67 39.8266 30.67 40.7014Z" fill="#E00000"/>
</svg>
