<svg width="37" height="26" viewBox="0 0 37 26" fill="none" xmlns="http://www.w3.org/2000/svg">
<path d="M10.0974 8.99882L4.58614 13.0002L10.0974 17.0015C10.2802 17.132 10.4315 17.2928 10.5426 17.4745C10.6537 17.6562 10.7225 17.8553 10.7448 18.0603C10.7672 18.2653 10.7428 18.4721 10.673 18.6688C10.6032 18.8656 10.4894 19.0483 10.3382 19.2065C10.1869 19.3647 10.0012 19.4953 9.7918 19.5906C9.58236 19.686 9.35333 19.7443 9.1179 19.7622C8.88248 19.78 8.64533 19.7571 8.42012 19.6947C8.19492 19.6323 7.98611 19.5317 7.80575 19.3987L0.64443 14.1988C0.442736 14.0524 0.280458 13.8691 0.169093 13.662C0.0577275 13.4548 0 13.2289 0 13.0002C0 12.7714 0.0577275 12.5455 0.169093 12.3384C0.280458 12.1312 0.442736 11.948 0.64443 11.8016L7.80575 6.60165C8.17109 6.34077 8.63994 6.21626 9.11017 6.25525C9.58039 6.29424 10.0139 6.49356 10.3162 6.8098C10.6185 7.12603 10.7651 7.53355 10.7242 7.94357C10.6832 8.35359 10.4579 8.73289 10.0974 8.99882ZM36.3556 11.8016L29.1942 6.60165C29.0139 6.4686 28.8051 6.36799 28.5799 6.3056C28.3547 6.24321 28.1175 6.22029 27.8821 6.23816C27.6467 6.25602 27.4176 6.31432 27.2082 6.4097C26.9988 6.50507 26.8131 6.63562 26.6618 6.79384C26.5106 6.95205 26.3968 7.13478 26.327 7.33151C26.2572 7.52823 26.2328 7.73504 26.2552 7.94003C26.2775 8.14501 26.3463 8.3441 26.4574 8.52583C26.5685 8.70755 26.7198 8.8683 26.9026 8.99882L32.4139 13.0002L26.9026 17.0015C26.7198 17.132 26.5685 17.2928 26.4574 17.4745C26.3463 17.6562 26.2775 17.8553 26.2552 18.0603C26.2328 18.2653 26.2572 18.4721 26.327 18.6688C26.3968 18.8656 26.5106 19.0483 26.6618 19.2065C26.8131 19.3647 26.9988 19.4953 27.2082 19.5906C27.4176 19.686 27.6467 19.7443 27.8821 19.7622C28.1175 19.78 28.3547 19.7571 28.5799 19.6947C28.8051 19.6323 29.0139 19.5317 29.1942 19.3987L36.3556 14.1988C36.5573 14.0524 36.7195 13.8691 36.8309 13.662C36.9423 13.4548 37 13.2289 37 13.0002C37 12.7714 36.9423 12.5455 36.8309 12.3384C36.7195 12.1312 36.5573 11.948 36.3556 11.8016ZM23.8859 0.0939348C23.6649 0.0239055 23.4302 -0.00750112 23.1953 0.00150895C22.9604 0.010519 22.7298 0.0597694 22.5167 0.146447C22.3036 0.233124 22.1122 0.35553 21.9534 0.506672C21.7947 0.657815 21.6716 0.834734 21.5913 1.02732L12.0429 23.907C11.881 24.2958 11.9029 24.7246 12.1038 25.0993C12.3047 25.4739 12.6681 25.7638 13.1141 25.9051C13.3099 25.9681 13.517 26.0002 13.7258 26C14.0934 26.0001 14.4521 25.9015 14.7531 25.7178C15.0542 25.5341 15.2831 25.274 15.4087 24.973L24.9571 2.09331C25.0375 1.90074 25.0735 1.69627 25.0632 1.49156C25.0529 1.28686 24.9963 1.08593 24.8969 0.900265C24.7974 0.714597 24.6569 0.547824 24.4834 0.409472C24.31 0.27112 24.1069 0.163899 23.8859 0.0939348Z" fill="white"/>
</svg>
